<svg width="200" height="200" xmlns="http://www.w3.org/2000/svg">
  <defs>
    <radialGradient id="bg2" cx="50%" cy="50%" r="50%">
      <stop offset="0%" stop-color="#dbeafe"/>
      <stop offset="100%" stop-color="#93c5fd"/>
    </radialGradient>
  </defs>
  <circle cx="100" cy="100" r="100" fill="url(#bg2)"/>
  <!-- Face -->
  <circle cx="100" cy="85" r="45" fill="#d4a574"/>
  <!-- Hair (shorter, male style) -->
  <path d="M60 70Q60 45 100 45Q140 45 140 70Q140 65 60 65Z" fill="#2d1810"/>
  <!-- Eyes -->
  <circle cx="85" cy="80" r="3" fill="#1a1a1a"/>
  <circle cx="115" cy="80" r="3" fill="#1a1a1a"/>
  <!-- Nose -->
  <ellipse cx="100" cy="90" rx="2" ry="3" fill="#c49060"/>
  <!-- Mouth -->
  <path d="M92 100Q100 105 108 100" stroke="#1a1a1a" stroke-width="2" fill="none"/>
  <!-- Beard/stubble -->
  <path d="M85 105Q100 110 115 105Q100 115 85 105Z" fill="#2d1810" opacity="0.3"/>
  <!-- Shirt collar -->
  <path d="M70 140Q100 135 130 140Q100 145 70 140Z" fill="#374151"/>
</svg>